# xmcd
#
# Track frame offsets:
#	150
#	24603
#	47667
#	68470
#	84777
#	108903
#	128797
#	151112
#	175614
#	198096
#	213710
#	240831
#
# Disc length: 3498 seconds
#
# Revision: 0
# Processed by: cddbd v1.5.2PL0 Copyright (c) Steve Scherf et al.
# Submitted via: EasyCDDAExtractor 11.0.3.1
#
DISCID=860da80c
DTITLE=Yolanda Adams - The Essential Yolanda Adams - Disc 1
DYEAR=2006
DGENRE=Gospel
TTITLE0=The Only Way
TTITLE1=You Changed My Life
TTITLE2=Just A Prayer Away
TTITLE3=Let Us Worship Him
TTITLE4=What About The Children
TTITLE5=This Joy
TTITLE6=Through The Storm
TTITLE7=Even Me
TTITLE8=More Than A Melody
TTITLE9=Never Alone
TTITLE10=The Good Shephard
TTITLE11=His Presence Is Here
EXTD=
EXTT0=
EXTT1=
EXTT2=
EXTT3=
EXTT4=
EXTT5=
EXTT6=
EXTT7=
EXTT8=
EXTT9=
EXTT10=
EXTT11=
PLAYORDER=
